<svg width="87" height="58" viewBox="0 0 87 58" fill="none" xmlns="http://www.w3.org/2000/svg">
<g clip-path="url(#clip0_2104_419)">
<path d="M56.7427 3.07598e-06C51.6226 -0.00256432 46.618 1.6021 42.3694 4.60873C42.0769 4.8191 40.0553 6.33846 39.9664 6.41248C36.6082 9.06941 34.3534 9.52911 31.2654 8.71489C31.0766 8.66425 30.1917 8.34479 29.914 8.23181C27.0299 7.08924 23.9273 6.69181 20.8669 7.07292C17.8065 7.45403 14.8778 8.60255 12.3268 10.4219C9.77593 12.2413 7.67735 14.6784 6.2075 17.5284C4.73765 20.3784 3.93947 23.558 3.88004 26.8C3.82062 30.042 4.50169 33.2516 5.86601 36.1591C7.23034 39.0666 9.23804 41.5871 11.7204 43.5086C14.2027 45.4301 17.0872 46.6966 20.1314 47.2016C23.1755 47.7066 26.2904 47.4353 29.2142 46.4106C33.8202 44.9613 36.3194 45.3587 39.2111 47.5053C39.7887 47.9338 41.1809 48.8727 41.4697 49.0948C44.7609 51.636 48.5776 53.3203 52.607 54.0096C56.6364 54.6989 60.7636 54.3737 64.6504 53.0605C68.5373 51.7473 72.073 49.4836 74.9677 46.4549C77.8624 43.4262 80.0338 39.7188 81.3037 35.6366C82.5737 31.5544 82.9061 27.2136 82.2736 22.9702C81.6412 18.7267 80.062 14.7013 77.6655 11.2241C75.2689 7.74683 72.1233 4.9167 68.4864 2.96569C64.8496 1.01468 60.825 -0.00165847 56.7427 3.07598e-06V3.07598e-06Z" fill="#007858"/>
<path d="M47.4235 31.3845C46.6881 32.1461 45.7292 32.6231 44.7031 32.7377C43.677 32.8523 42.6443 32.5978 41.7733 32.0157L40.0591 34.8791C41.5443 35.8666 43.3029 36.2978 45.0501 36.1026C46.7972 35.9075 48.4306 35.0975 49.6857 33.8038L47.4235 31.3845ZM44.3355 19.7205C42.9196 19.6969 41.5243 20.0789 40.299 20.8258C39.0737 21.5727 38.0646 22.6563 37.3798 23.9604C36.695 25.2646 36.3604 26.7402 36.4116 28.2292C36.4629 29.7182 36.8982 31.1644 37.6709 32.413L51.8073 26.0551C51.4095 24.2749 50.4586 22.6852 49.1052 21.5378C47.7518 20.3904 46.0733 19.7509 44.3355 19.7205V19.7205ZM39.6518 28.4393C39.5449 27.4104 39.7551 26.3726 40.2516 25.479C40.748 24.5854 41.5042 23.8834 42.4087 23.4765C43.3132 23.0696 44.3181 22.9794 45.275 23.2193C46.232 23.4591 47.0903 24.0162 47.7234 24.8085L39.6518 28.4393ZM56.2467 16.0234V31.8754L58.8607 33.0169L57.6277 36.1335L55.0359 35.0037C54.5141 34.7688 54.0706 34.3754 53.7622 33.874C53.4178 33.2902 53.244 32.6129 53.2624 31.9261V16.0234H56.2467ZM33.4833 16.0234V31.8754L36.0751 33.0169L34.8422 36.1335L32.2504 35.0037C31.7459 34.7669 31.3176 34.3813 31.0174 33.8934C30.6717 33.3101 30.4966 32.6327 30.5139 31.9455V16.0234H33.4833Z" fill="white"/>
<path d="M69.1093 23.5734C69.6525 23.849 70.1388 24.2346 70.5403 24.708C70.9419 25.1815 71.2508 25.7335 71.4496 26.3326C71.6483 26.9317 71.7329 27.5661 71.6986 28.1997C71.6642 28.8332 71.5116 29.4534 71.2494 30.0248L74.1411 31.4857C74.9238 29.7681 75.1147 27.8176 74.6811 25.9682C74.2475 24.1187 73.2164 22.4854 71.7642 21.3479C70.3121 20.2104 68.5293 19.6394 66.7211 19.7326C64.9129 19.8259 63.1917 20.5777 61.8523 21.8592L64.0146 24.3564C64.6919 23.7046 65.5395 23.2815 66.4477 23.1419C67.3559 23.0023 68.2831 23.1526 69.1093 23.5734V23.5734Z" fill="#C7D540"/>
<path d="M65.129 32.2884C64.0313 31.7322 63.1883 30.7404 62.785 29.5309C62.3817 28.3213 62.451 26.9928 62.9778 25.8369L60.0861 24.3721C59.3111 26.0875 59.1251 28.0325 59.5599 29.8759C59.9947 31.7193 61.0233 33.3472 62.4706 34.4823C63.9179 35.6174 65.6944 36.1896 67.4975 36.1014C69.3007 36.0132 71.0191 35.2701 72.3601 33.9986L70.1978 31.5053C69.5222 32.1506 68.6794 32.5697 67.7767 32.7091C66.874 32.8486 65.9523 32.7021 65.129 32.2884V32.2884ZM27.5591 32.5182V27.929C27.5591 26.3109 27.103 24.7291 26.2487 23.3838C25.3943 22.0384 24.18 20.9898 22.7592 20.3706C21.3384 19.7513 19.7751 19.5893 18.2668 19.905C16.7585 20.2207 15.3731 20.9999 14.2857 22.144C13.1983 23.2882 12.4577 24.7459 12.1577 26.3329C11.8577 27.9199 12.0117 29.5649 12.6002 31.0598C13.1887 32.5547 14.1853 33.8324 15.4639 34.7314C16.7426 35.6303 18.2459 36.1101 19.7837 36.1101C20.9891 36.1103 22.1781 35.8155 23.2567 35.2492L22.0052 32.1715C21.3045 32.5792 20.5148 32.7873 19.7142 32.7752C18.9137 32.7632 18.1299 32.5314 17.4406 32.1028C16.7513 31.6743 16.1803 31.0638 15.784 30.3317C15.3878 29.5996 15.18 28.7714 15.1814 27.929C15.1772 27.1375 15.3591 26.3573 15.7109 25.6577C16.0205 25.0472 16.4506 24.5134 16.9723 24.0922C17.494 23.6709 18.0953 23.3718 18.7359 23.2151C19.0756 23.1304 19.4235 23.0873 19.7726 23.0865C20.9945 23.0855 22.1668 23.5949 23.0319 24.503C23.897 25.411 24.384 26.6433 24.386 27.929V32.4793C24.3676 33.1661 24.5414 33.8434 24.8858 34.4272C25.1963 34.9266 25.6391 35.3194 26.1595 35.5569L27.6183 36.1647L28.855 33.048L27.5591 32.5182Z" fill="white"/>
</g>
<defs>
<clipPath id="clip0_2104_419">
<rect width="87" height="58" fill="white"/>
</clipPath>
</defs>
</svg>
