<svg width="74" height="47" viewBox="0 0 74 47" fill="none" xmlns="http://www.w3.org/2000/svg">
<g clip-path="url(#clip0_2106_289)">
<path d="M0.00268555 47H73.9973V0H0.00268555V47Z" fill="black"/>
<path d="M0.859375 46.1571H73.2086V0.855591H0.859375V46.1571Z" fill="white"/>
<path d="M16.818 25.9492L18.2176 27.5545L19.6639 25.9598H20.8227V26.4526L19.0102 28.4576L20.8227 30.6013V25.9598H24.0941C24.7128 25.9598 25.62 26.246 25.62 27.5293C25.62 29.3296 24.4263 29.3509 23.7726 29.3509H22.0738V31.094H19.6523L18.173 29.3859L16.6577 31.0814H11.8429V25.9482H16.818V25.9492V25.9492ZM31.6393 25.9492H35.7654V27.0559H32.902V28.0172H35.6857V28.9911H32.902V30.0076H35.7654V31.0824H31.6393V25.9492V25.9492ZM27.4801 31.095H26.2174V25.9608H29.4994C30.1201 25.9608 31.0147 26.2363 31.0147 27.3353C31.0147 27.9561 30.8311 28.413 30.1425 28.7573C30.7388 28.8262 30.969 29.2161 30.969 30.0406L31.0147 31.095H29.786L29.752 30.1541C29.7413 29.7195 29.5684 29.284 29.1333 29.284H27.4801V31.095V31.095ZM43.6894 27.9503C45.2425 28.0279 45.3707 28.8029 45.3707 29.6274C45.3707 30.5896 44.5791 31.1057 43.7525 31.1057H41.1018V30.0067H43.1678C43.5184 30.0067 44.04 30.0067 44.04 29.512C44.04 29.2772 43.9477 29.1288 43.5747 29.0881C43.2849 29.0599 42.9944 29.0399 42.7035 29.0279C41.3019 28.9911 40.9765 28.2956 40.9765 27.4478C40.9765 26.4856 41.6535 25.9589 42.4801 25.9589H45.1308V27.0598H43.1911C42.7501 27.0656 42.2732 27.0074 42.2732 27.507C42.2732 27.8213 42.5092 27.8843 42.8064 27.9144C42.9094 27.9153 43.5981 27.9503 43.6894 27.9503V27.9503ZM38.961 27.9503C40.5132 28.0279 40.6423 28.8029 40.6423 29.6274C40.6423 30.5896 39.8498 31.1057 39.0241 31.1057H36.3725V30.0067H38.4384C38.7881 30.0067 39.3117 30.0067 39.3117 29.512C39.3117 29.2772 39.2194 29.1288 38.8464 29.0881C38.6793 29.0648 38.0655 29.0299 37.9751 29.0279C36.5735 28.9911 36.2481 28.2956 36.2481 27.4478C36.2481 26.4856 36.9251 25.9589 37.7507 25.9589H40.4024V27.0598H38.4627C38.0208 27.0656 37.5448 27.0074 37.5448 27.507C37.5448 27.8213 37.7799 27.8843 38.0791 27.9144C38.181 27.9153 38.8697 27.9503 38.961 27.9503V27.9503ZM22.3263 22.27H21.0636V17.1358H24.3457C24.9654 17.1358 25.8619 17.4113 25.8619 18.5103C25.8619 19.1301 25.6783 19.5889 24.9896 19.9323C25.586 20.0012 25.8162 20.3911 25.8162 21.2156L25.8619 22.27H24.6341L24.5992 21.3301C24.5875 20.8945 24.4166 20.46 23.9795 20.46H22.3273V22.27H22.3263V22.27ZM26.5049 22.27H27.7666V17.13H26.5049V22.27ZM16.2148 17.1358H20.34V18.2416H17.4795V19.2048H20.2613V20.1797H17.4795V21.1933H20.34V22.27H16.2148V17.1358V17.1358ZM7.0019 22.27H9.54382V18.4599L11.23 22.27H12.3781L14.1041 18.5229V22.27H15.3659V17.1358H13.3523L11.8031 20.5803L10.2597 17.1358H8.28015V22.0808L6.07624 17.1358H4.40752L2.15796 22.27H3.48963L3.98208 21.1244H6.5007L7.0019 22.27V22.27ZM35.0301 21.1273H32.5125L32.019 22.2729H30.3542C28.9545 22.2729 28.3339 21.1012 28.364 19.6801C28.4067 17.5714 29.6549 17.1329 30.2289 17.1329H31.8763V18.2503H31.0963C30.258 18.2503 29.6044 18.3376 29.6044 19.5404V19.9129C29.6102 20.8179 30.0852 21.0323 30.3892 21.0953C30.464 21.1128 30.6019 21.1196 30.6524 21.1157L31.1983 21.1128L32.9369 17.1358H34.6076L36.759 21.9547V17.1329H38.623L40.7521 20.6879V17.1329H42.0138V22.2729H40.2927L38.0208 18.5132V22.2729H35.5303L35.0301 21.1273V21.1273Z" fill="#00ACEC"/>
<path d="M45.1416 25.1597V2.30664H2.26685V19.978L3.87437 16.3579H6.6057L7.50125 18.5113V16.3579H10.828L11.8382 18.49L12.825 16.3579H24.5536C25.0121 16.3579 25.6318 16.519 25.9086 17.0224V16.3579H28.3641V17.1369C28.6856 16.7023 29.1674 16.3579 30.1076 16.3579H35.1118L36.0297 18.4425V16.3579H38.9912L40.0461 18.1689V16.3579H42.7541V23.049H39.8401L38.6231 21.0789V23.049H34.9282L34.3318 21.7424H33.1604L32.6097 23.049H30.2912C29.7861 23.0043 28.6166 22.7968 28.3641 22.0188V23.049H23.9116V21.5833C23.9116 21.3757 23.728 21.1245 23.4755 21.1245H22.9937V23.049H13.5137V21.5367L12.8027 23.049H10.8746L10.1403 21.5135V23.049H6.35316L5.84808 21.8578H4.63102L4.1036 23.049H2.26685V44.6633H45.1416V31.4161C44.9123 31.6693 44.5452 31.8749 43.9944 31.8749H40.4122V31.3705C40.1374 31.6693 39.7479 31.8749 39.1272 31.8749H29.0294V30.4772C29.0061 30.2929 29.0984 29.9039 28.5933 29.9039H28.1805V31.8749H25.4948V29.6042C25.219 30.0649 24.6236 30.0862 24.2331 30.1095H22.8091V31.8749H19.2289L18.1954 30.6139L17.0939 31.8749H11.0125V25.1597H17.1862L18.2644 26.3741L19.3668 25.1597H24.2554C24.5993 25.181 25.253 25.342 25.4948 25.7087V25.1597H29.6724C30.0396 25.1597 30.7506 25.3187 31.0498 25.7999V25.1597H36.2822V25.7543C36.5571 25.3886 36.9942 25.1597 37.6586 25.1597H41.0096V25.7329C41.2621 25.3653 41.9285 25.1597 42.3189 25.1597H45.1416V25.1597ZM56.9411 24.5757C56.9411 25.4342 53.6687 24.4875 53.6687 26.5749C53.6687 27.5284 54.4409 27.96 55.3093 27.96C55.994 27.96 56.5195 27.8184 57.0382 27.3363L57.2247 27.8271H58.875C58.7807 27.6487 58.7662 27.4159 58.7662 27.154V25.0064C58.7662 23.9103 58.6341 23.1042 56.4583 23.1042C54.642 23.1042 53.9485 23.6736 53.9485 24.6456H55.7036C55.7473 24.2517 56.0902 24.2003 56.3447 24.2003C56.539 24.2003 56.9411 24.244 56.9411 24.5757V24.5757ZM66.4366 27.2083V27.8223H68.0762V21.5115H66.2531V23.694C65.8655 23.2381 65.4624 23.0984 64.8835 23.0984C63.7859 23.0984 62.9351 24.0878 62.9351 25.6136C62.9351 26.9105 63.6373 27.9532 65.0234 27.9532C65.613 27.9532 66.0073 27.7699 66.4366 27.2083V27.2083ZM62.462 24.6785V23.1246C62.3833 23.1159 62.3037 23.0984 62.224 23.0984C61.515 23.0984 61.0662 23.4399 60.8118 24.1596H60.7943V23.2303H59.1362V27.8213H60.9604V26.0132C60.9604 25.0229 61.3382 24.6717 62.0842 24.6717L62.462 24.6785V24.6785ZM51.5687 23.9122C51.5066 23.2565 51.0938 22.8792 50.4449 22.8792C49.7165 22.8792 49.2774 23.5019 49.2774 24.7193C49.2774 25.6049 49.4707 26.4362 50.5226 26.4362C51.1909 26.4362 51.5066 25.9735 51.5862 25.3682H53.5774C53.3948 26.9978 52.2263 27.9775 50.5605 27.9775C48.4722 27.9775 47.2076 26.701 47.2076 24.6485C47.2076 22.6066 48.5936 21.3359 50.3585 21.3359C52.2885 21.3359 53.3686 22.2914 53.5357 23.9113H51.5687V23.9122V23.9122Z" fill="#00ACEC"/>
<path d="M22.0748 28.2986H23.6474C24.1631 28.2986 24.3467 27.9998 24.3467 27.6564C24.3467 27.4042 24.1806 27.0677 23.6522 27.0677H22.0748V28.2986ZM15.9691 27.056H13.1067V28.0173H15.8885V28.9912H13.1067V30.0077H16.0158L17.4047 28.4586L16.176 27.0609L15.9691 27.056ZM27.4802 28.2307H29.0527C29.5685 28.2307 29.7521 28.0008 29.7521 27.6564C29.7521 27.4042 29.586 27.0677 29.0576 27.0677H27.4802V28.2307V28.2307ZM22.3264 19.4057H23.8989C24.4157 19.4057 24.5983 19.1768 24.5983 18.8324C24.5983 18.5812 24.4322 18.2417 23.9038 18.2417H22.3264V19.4057V19.4057ZM6.01318 20.0197H4.47656L5.2303 18.2242L6.01318 20.0197ZM33.7578 18.2272L33.006 20.0216H34.5484L33.7578 18.2272Z" fill="white"/>
<path d="M71.4719 29.2288L56.0271 44.6516H58.2203L71.4719 31.419V29.2288Z" fill="#3B4095"/>
<path d="M71.4719 33.5443L60.3503 44.6517H62.5416L71.4719 35.7355V33.5443Z" fill="#00ACEC"/>
<path d="M71.472 37.8607L64.6699 44.6516H66.8651L71.472 40.05V37.8607Z" fill="#6CB35E"/>
<path d="M46.7102 42.2228C46.7108 41.9025 46.7747 41.5855 46.8981 41.2899C47.0214 40.9943 47.2019 40.7258 47.4293 40.4999C47.6566 40.274 47.9262 40.095 48.2229 39.9732C48.5195 39.8514 48.8372 39.7892 49.1579 39.79C49.4779 39.7898 49.7948 39.8525 50.0905 39.9747C50.3861 40.0969 50.6548 40.2761 50.881 40.502C51.1073 40.728 51.2867 40.9963 51.4091 41.2915C51.5314 41.5868 51.5942 41.9032 51.594 42.2228C51.5954 42.5432 51.5334 42.8608 51.4116 43.1573C51.2899 43.4538 51.1107 43.7234 50.8844 43.9506C50.658 44.1778 50.389 44.3581 50.0928 44.4812C49.7965 44.6044 49.4788 44.6679 49.1579 44.6681C48.8363 44.6685 48.5177 44.6055 48.2205 44.4828C47.9233 44.36 47.6533 44.1799 47.4259 43.9527C47.1985 43.7255 47.0183 43.4558 46.8955 43.159C46.7727 42.8621 46.7097 42.544 46.7102 42.2228V42.2228Z" fill="#00ACEC"/>
<path d="M51.2996 42.2228C51.2997 41.942 51.2444 41.6638 51.1368 41.4043C51.0292 41.1448 50.8714 40.9091 50.6725 40.7105C50.4736 40.512 50.2374 40.3545 49.9775 40.2472C49.7176 40.1398 49.4391 40.0847 49.1578 40.085C48.8762 40.0842 48.5971 40.1389 48.3366 40.246C48.0762 40.3531 47.8394 40.5104 47.64 40.709C47.4405 40.9076 47.2822 41.1435 47.1741 41.4033C47.0661 41.663 47.0104 41.9415 47.0103 42.2228C47.0103 42.7909 47.2362 43.3356 47.6384 43.7373C48.0406 44.1389 48.5861 44.3646 49.1549 44.3646C49.7237 44.3646 50.2692 44.1389 50.6714 43.7373C51.0736 43.3356 51.2996 42.7909 51.2996 42.2228V42.2228Z" fill="white"/>
<path d="M50.3721 43.5896H49.9768L49.1948 42.3315H48.5829V43.5896H48.2498V40.8619H49.4386C49.6688 40.8619 49.899 40.8755 50.104 40.9968C50.3089 41.1122 50.41 41.3547 50.41 41.5836C50.41 42.121 50.0341 42.3189 49.5474 42.3315L50.3721 43.5896V43.5896Z" fill="#00ACEC"/>
<path d="M49.0949 42.0695C49.4786 42.0695 50.073 42.1335 50.073 41.5768C50.073 41.1558 49.702 41.1054 49.363 41.1054H48.584V42.0695H49.0949ZM56.9412 25.794C56.946 26.6534 56.6818 26.925 56.0417 26.925C55.6814 26.925 55.4619 26.7669 55.4619 26.54C55.4628 25.9424 56.3457 26.0831 56.9412 25.794V25.794ZM66.3143 25.57C66.3143 26.1035 66.1133 26.6379 65.4809 26.6379C64.8855 26.6379 64.7631 26.0782 64.7631 25.5952C64.7631 25.0888 64.9292 24.5088 65.5353 24.5088C66.1395 24.5088 66.3143 25.0607 66.3143 25.57Z" fill="white"/>
</g>
<defs>
<clipPath id="clip0_2106_289">
<rect width="74" height="47" fill="white"/>
</clipPath>
</defs>
</svg>
