<svg width="69" height="33" viewBox="0 0 69 33" fill="none" xmlns="http://www.w3.org/2000/svg">
<g clip-path="url(#clip0_2103_359)">
<path d="M0.00878906 0H68.9915V33H0.00878906V0Z" fill="black"/>
<path d="M14.2219 10.1088C14.8858 9.88475 15.5939 9.76526 16.3286 9.76526C19.5448 9.76526 22.2299 12.0774 22.8436 15.1512L27.4024 14.2103C26.3578 8.98858 21.7962 5.05737 16.3286 5.05737C15.0746 5.05737 13.8737 5.26349 12.7466 5.64586L14.2219 10.1088Z" fill="#FFCB05"/>
<path d="M8.84273 25.0629L11.9261 21.535C10.5511 20.3013 9.68366 18.5 9.68366 16.4926C9.68366 14.4881 10.5511 12.6868 11.9261 11.4561L8.84273 7.92517C6.50583 10.0222 5.03052 13.0841 5.03052 16.4926C5.03052 19.904 6.50583 22.9659 8.84273 25.0629" fill="#00A4E0"/>
<path d="M22.8436 17.8428C22.227 20.9137 19.5448 23.2228 16.3316 23.2228C15.5939 23.2228 14.8828 23.1033 14.2219 22.8763L12.7466 27.3452C13.8737 27.7246 15.0776 27.9307 16.3316 27.9307C21.7932 27.9307 26.3519 24.0054 27.4024 18.7897L22.8436 17.8428Z" fill="#EF4123"/>
<path d="M31.3885 21.6814C31.238 21.4365 31.0374 21.0451 30.9135 20.7554C30.1905 19.0586 30.1581 17.3021 30.7659 15.6173C31.4357 13.7682 32.7163 12.3553 34.3716 11.6323C36.4518 10.7272 38.7503 10.9035 40.7449 12.1013C42.0108 12.8362 42.9078 13.9714 43.5894 15.5785C43.6749 15.7846 43.7516 16.0027 43.8284 16.1909L31.3885 21.6814ZM35.543 14.3597C34.0647 15.002 33.3035 16.406 33.4628 18.0489L39.7181 15.3216C38.6412 14.043 37.2426 13.6189 35.543 14.3597V14.3597ZM40.4971 20.2923C40.4941 20.2923 40.4941 20.2953 40.4941 20.2953L40.3643 20.2057C39.9896 20.8181 39.4083 21.317 38.6736 21.6396C37.275 22.255 35.9797 22.0966 35.0473 21.2692L34.9617 21.4006C34.9617 21.4006 34.9617 21.3976 34.9588 21.3976L33.3713 23.8023C33.7667 24.0802 34.1887 24.3132 34.6312 24.5014C36.3839 25.2392 38.1779 25.2034 39.9453 24.4267C41.223 23.8651 42.2262 23.0107 42.9107 21.9264L40.4971 20.2923ZM48.1746 8.09546V21.4604L50.2283 22.3028L49.0628 25.057L46.7967 24.1011C46.2892 23.877 45.941 23.5365 45.6814 23.1511C45.4306 22.7598 45.2447 22.2191 45.2447 21.4962V8.09546H48.1746ZM53.4917 18.0579C53.4917 16.9198 53.9903 15.8981 54.7752 15.2051L52.6684 12.8272C51.2403 14.1058 50.3404 15.9728 50.3404 18.0519C50.3374 20.134 51.2374 22.004 52.6625 23.2826L54.7663 20.9047C53.9844 20.2087 53.4917 19.193 53.4917 18.0579V18.0579ZM57.2331 21.8487C56.82 21.8487 56.4187 21.777 56.0469 21.6515L55.0407 24.6776C55.7282 24.9106 56.463 25.0391 57.2301 25.0391C60.5643 25.0421 63.3468 22.6463 63.993 19.4649L60.9007 18.8256C60.5496 20.5552 59.0418 21.8517 57.2331 21.8487V21.8487ZM57.2419 11.0767C56.4777 11.0767 55.743 11.2022 55.0555 11.4322L56.0528 14.4613C56.4275 14.3358 56.8259 14.2671 57.239 14.2671C59.0507 14.2701 60.5614 15.5725 60.9036 17.3051L63.9959 16.6718C63.3615 13.4844 60.5791 11.0797 57.2419 11.0767V11.0767Z" fill="white"/>
</g>
<defs>
<clipPath id="clip0_2103_359">
<rect width="69" height="33" fill="white"/>
</clipPath>
</defs>
</svg>
