<svg width="65" height="26" viewBox="0 0 65 26" fill="none" xmlns="http://www.w3.org/2000/svg">
<g clip-path="url(#clip0_2102_233)">
<path d="M17.8402 0H11.105C8.12892 0.129329 5.69628 1.23103 4.99388 3.50291C4.62762 4.68775 4.42606 5.98901 4.13966 7.21723C2.6837 13.4623 1.39269 19.8795 0 26H52.4363C56.4901 26 59.2737 25.2127 60.0258 22.2553C60.3752 20.8816 60.7099 19.3258 61.0443 17.8165C62.3475 11.9318 63.652 6.04752 64.987 0H17.8402Z" fill="#202020"/>
<path d="M17.3211 9.24044C17.6028 9.0621 17.9656 8.2499 17.5511 7.91174C17.4198 7.80469 17.2003 7.77362 16.894 7.82122C16.6099 7.86531 16.4465 7.95407 16.3355 8.09301C16.1571 8.31638 15.9935 8.99023 16.2698 9.24056C16.5389 9.48421 17.1418 9.35383 17.3211 9.24044V9.24044ZM13.3128 7.91174C13.111 9.11534 12.8837 10.2955 12.6557 11.475C11.1921 11.4892 9.69772 11.5414 8.28603 11.4448C8.55265 10.2908 8.74388 9.06738 9.00884 7.91174H7.43181C6.86731 10.8555 6.35371 13.8462 5.72339 16.7295H7.33333C7.58579 15.2506 7.82205 13.7564 8.15463 12.3508C9.52729 12.3197 11.1724 12.2656 12.4915 12.381C12.2195 13.8424 11.8909 15.2513 11.6373 16.7295H13.2472C13.7647 13.7422 14.3095 10.7806 14.9558 7.91174H13.3128V7.91174ZM36.0812 10.4484C34.8286 9.98335 33.8438 10.7692 33.3872 11.5053C33.4908 11.1778 33.5334 10.7943 33.6173 10.4484H32.3688C32.0635 12.624 31.6137 14.6665 31.1861 16.7295H32.5989C32.7969 15.505 32.8824 13.8543 33.3216 12.683C33.6727 11.7469 34.5915 10.9495 35.9172 11.3845C35.9355 11.0392 36.0431 10.7756 36.0812 10.4484V10.4484ZM36.8696 15.2499C36.7394 14.9405 36.7058 14.43 36.7383 14.0418C36.8113 13.1693 37.1573 12.107 37.6912 11.6261C38.4279 10.9623 39.8823 11.0722 41.0424 11.4449C41.0783 11.0855 41.1569 10.765 41.2067 10.4182C39.3042 10.1326 37.4988 10.3104 36.5415 11.2336C35.6042 12.1374 34.9901 14.2146 35.4242 15.5217C35.9325 17.0511 38.2117 17.1342 40.0568 16.5484C40.1385 16.241 40.1817 15.8983 40.2539 15.5822C39.2455 16.0635 37.3178 16.3137 36.8696 15.2499V15.2499ZM52.7386 10.4785C51.49 9.90468 50.4504 10.8676 50.0446 11.4448C50.1602 11.1486 50.1668 10.7519 50.2745 10.4483H49.0261C48.6894 12.605 48.2837 14.6982 47.8106 16.7293H49.2562C49.2653 15.8969 49.4432 15.281 49.5846 14.4647C49.8866 12.7214 50.3303 10.8097 52.5418 11.3844C52.6149 11.0896 52.6454 10.7552 52.7386 10.4785ZM15.8755 10.4484C15.8372 10.4534 15.8397 10.4961 15.8425 10.5389C15.5313 12.6786 15.1099 14.7174 14.6598 16.7293H16.0725C16.412 14.5752 16.8008 12.4666 17.2882 10.4483L15.8755 10.4484V10.4484ZM28.2946 10.3276C27.2737 10.4 26.4109 10.6699 25.7976 11.2638C25.0455 11.992 24.4365 13.6022 24.6149 15.0687C24.8696 17.1607 27.7035 17.0856 29.9702 16.5786C30.0089 16.2113 30.1056 15.8974 30.1673 15.5518C29.2336 15.8729 27.6123 16.3212 26.6517 15.7633C25.9266 15.3418 25.9224 14.2749 26.1589 13.3474C27.6824 13.3029 29.2658 13.3113 30.7914 13.3474C30.8881 12.6901 31.165 11.9735 30.9228 11.3243C30.6033 10.4671 29.459 10.2451 28.2946 10.3276ZM29.6416 12.6226H26.3231C26.4282 11.9214 27.1145 11.1507 28.196 11.1127C29.2137 11.077 29.9424 11.4562 29.6416 12.6226V12.6226ZM22.9393 10.4484C21.7436 10.0355 20.2863 10.5283 19.6545 10.9971C19.6568 11.0178 19.6394 11.0206 19.6208 11.0221C19.6315 11.0138 19.6432 11.0054 19.6545 10.9971C19.6544 10.9954 19.6542 10.9937 19.6538 10.992C19.6644 10.7904 19.7416 10.6499 19.7523 10.4484H18.5367C18.0301 13.5461 17.4294 16.5571 16.7955 19.5378H18.2082C18.4127 18.377 18.5477 17.1523 18.8325 16.0651C19.1552 17.2086 21.2619 16.9901 22.1509 16.5483C23.985 15.6366 25.3997 11.2978 22.9393 10.4484V10.4484ZM21.8223 15.5518C21.0664 16.2875 19.2082 16.2765 19.0624 15.0383C18.999 14.4997 19.2173 13.9349 19.3255 13.3776C19.4345 12.8135 19.5133 12.2722 19.6209 11.7771C20.3654 10.9415 22.5531 10.8406 22.7751 12.23C22.9676 13.4363 22.4481 14.9424 21.8223 15.5518V15.5518ZM57.9953 7.73059C57.8742 8.70636 57.7123 9.64473 57.5026 10.5389C54.0372 9.53064 51.912 11.8742 51.9502 14.7667C51.9578 15.3261 52.0625 15.8808 52.4429 16.2765C53.0991 16.9582 54.9772 17.1216 55.9257 16.5482C56.1092 16.4373 56.2968 16.2354 56.4184 16.0954C56.5099 15.99 56.6549 15.7138 56.6813 15.7933C56.6313 16.0997 56.5568 16.3837 56.55 16.7293H57.8314C58.0785 13.4735 58.8418 10.6926 59.4084 7.73047H57.9954V7.73059H57.9953ZM54.8414 16.0349C53.8903 16.0536 53.4174 15.5126 53.3956 14.6156C53.3577 13.0447 54.1074 11.2994 55.6299 11.1429C56.3387 11.07 56.8519 11.2215 57.3712 11.3845C56.8944 13.1492 57.0664 15.991 54.8414 16.0349V16.0349ZM42.6521 10.4484C42.5826 10.8072 42.4758 11.1318 42.3893 11.475C43.223 11.2829 45.8189 10.6938 46.0691 11.7166C46.1521 12.0564 46.0089 12.4174 45.9048 12.683C43.5575 12.4786 41.6442 12.837 41.1408 14.374C40.8038 15.4035 41.1786 16.4165 41.8965 16.6993C43.2793 17.2439 44.9612 16.6201 45.5434 15.7633C45.4829 16.0598 45.4256 16.3597 45.445 16.7295H46.6605C46.6735 15.6594 46.8429 14.7933 47.0219 13.8304C47.1745 13.0105 47.4617 12.1987 47.4162 11.475C47.3116 9.81768 44.3243 10.4039 42.6521 10.4484V10.4484ZM44.952 15.5215C44.2239 16.1766 42.1802 16.3627 42.3893 14.7968C42.5628 13.4962 44.1036 13.2199 45.7731 13.4076C45.6491 14.1191 45.5068 15.0224 44.952 15.5215V15.5215Z" fill="white"/>
</g>
<defs>
<clipPath id="clip0_2102_233">
<rect width="65" height="26" fill="white"/>
</clipPath>
</defs>
</svg>
