<svg width="50" height="34" viewBox="0 0 50 34" fill="none" xmlns="http://www.w3.org/2000/svg">
<path fill-rule="evenodd" clip-rule="evenodd" d="M25 24.3718C26.507 23.437 27.7099 22.2983 28.5318 21.0288C29.3537 19.7593 29.7763 18.387 29.7726 17C29.7764 15.6129 29.3538 14.2406 28.5319 12.9711C27.71 11.7017 26.507 10.563 25 9.62817C22.4232 8.02868 19.0049 7.05396 15.2537 7.05396C7.23557 7.05396 0.735107 11.5069 0.735107 17C0.735107 22.4929 7.23557 26.946 15.2537 26.946C19.0049 26.946 22.4234 25.9713 25 24.3718Z" fill="#009CFF"/>
<path fill-rule="evenodd" clip-rule="evenodd" d="M34.7465 7.05396C30.9954 7.05396 27.5766 8.02868 25.0002 9.62817C24.4748 9.95463 23.9849 10.3066 23.5344 10.6812H26.4651C26.8674 11.0156 27.2374 11.3674 27.5727 11.7344H22.4276C22.1178 12.0738 21.8383 12.4255 21.5905 12.7876H28.4084C28.6431 13.1304 28.8488 13.482 29.0245 13.8407H20.9757C20.8069 14.1862 20.6662 14.5377 20.5542 14.8937H29.4463C29.664 15.586 29.7735 16.292 29.7731 17C29.7731 18.1042 29.5096 19.1666 29.0248 20.1591H20.9757C21.1508 20.5179 21.3561 20.8696 21.5905 21.2123H28.4084C28.1611 21.5745 27.8819 21.9262 27.5724 22.2655H22.4276C22.7625 22.6325 23.1321 22.9843 23.5341 23.3188H26.4651C26.0151 23.6936 25.5255 24.0456 25.0002 24.372C27.5766 25.9715 30.9954 26.9462 34.7465 26.9462C42.7644 26.9462 49.2652 22.4931 49.2652 17.0002C49.2652 11.5069 42.7644 7.05396 34.7465 7.05396Z" fill="#CC2131"/>
<path fill-rule="evenodd" clip-rule="evenodd" d="M47.3315 22.5443C47.3315 22.3668 47.5414 22.2229 47.8008 22.2229C48.0597 22.2229 48.2695 22.3668 48.2695 22.5443C48.2695 22.7214 48.0597 22.8653 47.8008 22.8653C47.676 22.865 47.5564 22.8311 47.4684 22.7709C47.3804 22.7107 47.3312 22.6292 47.3315 22.5443V22.5443ZM47.8005 22.788C47.9972 22.788 48.1567 22.6792 48.1567 22.5441C48.1567 22.409 47.9972 22.2998 47.8005 22.2998C47.6034 22.2998 47.4439 22.409 47.4439 22.5441C47.4439 22.6792 47.6037 22.788 47.8005 22.788ZM47.7372 22.685H47.641V22.4025H47.8153C47.8514 22.4025 47.8882 22.4032 47.9201 22.4169C47.9367 22.4249 47.9501 22.4355 47.9593 22.4478C47.9685 22.4601 47.9731 22.4737 47.9728 22.4875C47.9728 22.5192 47.9455 22.5492 47.9014 22.5605L47.9774 22.6849H47.8706L47.8078 22.5732H47.7375V22.685V22.5252H47.7907C47.8099 22.5252 47.8317 22.5259 47.849 22.5194C47.8568 22.5158 47.863 22.5109 47.8673 22.5053C47.8715 22.4996 47.8736 22.4933 47.8734 22.487C47.8731 22.4813 47.8708 22.4757 47.8668 22.4708C47.8627 22.4658 47.857 22.4616 47.8501 22.4584C47.8335 22.4515 47.8065 22.4533 47.7883 22.4533H47.7378V22.685H47.7372Z" fill="#CC2131"/>
</svg>
